<?xml version="1.0" encoding="UTF-8" standalone="no"?><svg xmlns="http://www.w3.org/2000/svg" xmlns:xlink="http://www.w3.org/1999/xlink" contentScriptType="application/ecmascript" contentStyleType="text/css" height="265px" preserveAspectRatio="none" style="width:349px;height:265px;" version="1.1" viewBox="0 0 349 265" width="349px" zoomAndPan="magnify"><defs><filter height="300%" id="f1ofbo0empqijm" width="300%" x="-1" y="-1"><feGaussianBlur result="blurOut" stdDeviation="2.0"/><feColorMatrix in="blurOut" result="blurOut2" type="matrix" values="0 0 0 0 0 0 0 0 0 0 0 0 0 0 0 0 0 0 .4 0"/><feOffset dx="4.0" dy="4.0" in="blurOut2" result="blurOut3"/><feBlend in="SourceGraphic" in2="blurOut3" mode="normal"/></filter></defs><g><line style="stroke: #A80036; stroke-width: 1.0; stroke-dasharray: 5.0,5.0;" x1="163" x2="163" y1="41.1201" y2="221.8921"/><line style="stroke: #A80036; stroke-width: 1.0; stroke-dasharray: 5.0,5.0;" x1="233" x2="233" y1="41.1201" y2="221.8921"/><rect fill="#FEFECE" filter="url(#f1ofbo0empqijm)" height="33.1201" style="stroke: #A80036; stroke-width: 1.5;" width="56" x="133" y="3"/><text fill="#000000" font-family="sans-serif" font-size="14" lengthAdjust="spacingAndGlyphs" textLength="42" x="140" y="26.0439">客户端</text><rect fill="#FEFECE" filter="url(#f1ofbo0empqijm)" height="33.1201" style="stroke: #A80036; stroke-width: 1.5;" width="56" x="133" y="220.8921"/><text fill="#000000" font-family="sans-serif" font-size="14" lengthAdjust="spacingAndGlyphs" textLength="42" x="140" y="243.936">客户端</text><rect fill="#FEFECE" filter="url(#f1ofbo0empqijm)" height="33.1201" style="stroke: #A80036; stroke-width: 1.5;" width="56" x="203" y="3"/><text fill="#000000" font-family="sans-serif" font-size="14" lengthAdjust="spacingAndGlyphs" textLength="42" x="210" y="26.0439">服务器</text><rect fill="#FEFECE" filter="url(#f1ofbo0empqijm)" height="33.1201" style="stroke: #A80036; stroke-width: 1.5;" width="56" x="203" y="220.8921"/><text fill="#000000" font-family="sans-serif" font-size="14" lengthAdjust="spacingAndGlyphs" textLength="42" x="210" y="243.936">服务器</text><polygon fill="#A80036" points="221,75.8745,231,79.8745,221,83.8745,225,79.8745" style="stroke: #A80036; stroke-width: 1.0;"/><line style="stroke: #A80036; stroke-width: 1.0;" x1="163" x2="227" y1="79.8745" y2="79.8745"/><text fill="#000000" font-family="sans-serif" font-size="13" lengthAdjust="spacingAndGlyphs" textLength="26" x="170" y="75.0181">请求</text><path d="M55,56.1201 L55,83.1201 L154,83.1201 L154,66.1201 L144,56.1201 L55,56.1201 " fill="#FBFB77" filter="url(#f1ofbo0empqijm)" style="stroke: #A80036; stroke-width: 1.0;"/><path d="M144,56.1201 L144,66.1201 L154,66.1201 L144,56.1201 " fill="#FBFB77" style="stroke: #A80036; stroke-width: 1.0;"/><text fill="#000000" font-family="sans-serif" font-size="13" lengthAdjust="spacingAndGlyphs" textLength="78" x="61" y="76.0181">这是左侧注解</text><polygon fill="#A80036" points="174,117.6289,164,121.6289,174,125.6289,170,121.6289" style="stroke: #A80036; stroke-width: 1.0;"/><line style="stroke: #A80036; stroke-width: 1.0;" x1="168" x2="232" y1="121.6289" y2="121.6289"/><text fill="#000000" font-family="sans-serif" font-size="13" lengthAdjust="spacingAndGlyphs" textLength="26" x="180" y="116.7725">响应</text><path d="M238,97.8745 L238,124.8745 L337,124.8745 L337,107.8745 L327,97.8745 L238,97.8745 " fill="#FBFB77" filter="url(#f1ofbo0empqijm)" style="stroke: #A80036; stroke-width: 1.0;"/><path d="M327,97.8745 L327,107.8745 L337,107.8745 L327,97.8745 " fill="#FBFB77" style="stroke: #A80036; stroke-width: 1.0;"/><text fill="#000000" font-family="sans-serif" font-size="13" lengthAdjust="spacingAndGlyphs" textLength="78" x="244" y="117.7725">这是右侧注解</text><line style="stroke: #A80036; stroke-width: 1.0;" x1="233" x2="275" y1="174.6377" y2="174.6377"/><line style="stroke: #A80036; stroke-width: 1.0;" x1="275" x2="275" y1="174.6377" y2="187.6377"/><line style="stroke: #A80036; stroke-width: 1.0;" x1="234" x2="275" y1="187.6377" y2="187.6377"/><polygon fill="#A80036" points="244,183.6377,234,187.6377,244,191.6377,240,187.6377" style="stroke: #A80036; stroke-width: 1.0;"/><text fill="#000000" font-family="sans-serif" font-size="13" lengthAdjust="spacingAndGlyphs" textLength="78" x="240" y="169.7813">业务流程处理</text><path d="M8,139.6289 L8,202.6289 L224,202.6289 L224,149.6289 L214,139.6289 L8,139.6289 " fill="#FBFB77" filter="url(#f1ofbo0empqijm)" style="stroke: #A80036; stroke-width: 1.0;"/><path d="M214,139.6289 L214,149.6289 L224,149.6289 L214,139.6289 " fill="#FBFB77" style="stroke: #A80036; stroke-width: 1.0;"/><text fill="#000000" font-family="sans-serif" font-size="13" lengthAdjust="spacingAndGlyphs" textLength="26" x="14" y="159.5269">注解</text><text fill="#000000" font-family="sans-serif" font-size="13" lengthAdjust="spacingAndGlyphs" textLength="91" x="14" y="177.2813">也可以多行编写</text><text fill="#000000" font-family="sans-serif" font-size="13" lengthAdjust="spacingAndGlyphs" textLength="195" x="14" y="195.0356">只需要使用 note 和 end note 即可</text><!--
@startuml
客户端->服务器 : 请求
note left: 这是左侧注解
服务器 ->客户端 : 响应
note right: 这是右侧注解
服务器 ->服务器  : 业务流程处理
note left
注解
也可以多行编写
只需要使用 note 和 end note 即可
end note
@enduml

PlantUML version 1.2018.12(Sun Oct 21 18:15:15 CST 2018)
(GPL source distribution)
Java Runtime: Java(TM) SE Runtime Environment
JVM: Java HotSpot(TM) 64-Bit Server VM
Java Version: 1.8.0_144-b01
Operating System: Windows 7
OS Version: 6.1
Default Encoding: GBK
Language: zh
Country: CN
--></g></svg>