<?xml version="1.0" encoding="UTF-8" standalone="no"?><svg xmlns="http://www.w3.org/2000/svg" xmlns:xlink="http://www.w3.org/1999/xlink" contentScriptType="application/ecmascript" contentStyleType="text/css" height="348px" preserveAspectRatio="none" style="width:440px;height:348px;" version="1.1" viewBox="0 0 440 348" width="440px" zoomAndPan="magnify"><defs><filter height="300%" id="f1v75pso7m0ync" width="300%" x="-1" y="-1"><feGaussianBlur result="blurOut" stdDeviation="2.0"/><feColorMatrix in="blurOut" result="blurOut2" type="matrix" values="0 0 0 0 0 0 0 0 0 0 0 0 0 0 0 0 0 0 .4 0"/><feOffset dx="4.0" dy="4.0" in="blurOut2" result="blurOut3"/><feBlend in="SourceGraphic" in2="blurOut3" mode="normal"/></filter></defs><g><line style="stroke: #A80036; stroke-width: 1.0; stroke-dasharray: 5.0,5.0;" x1="220" x2="220" y1="41.1201" y2="305.4009"/><line style="stroke: #A80036; stroke-width: 1.0; stroke-dasharray: 5.0,5.0;" x1="290" x2="290" y1="41.1201" y2="305.4009"/><rect fill="#FEFECE" filter="url(#f1v75pso7m0ync)" height="33.1201" style="stroke: #A80036; stroke-width: 1.5;" width="56" x="190" y="3"/><text fill="#000000" font-family="sans-serif" font-size="14" lengthAdjust="spacingAndGlyphs" textLength="42" x="197" y="26.0439">客户端</text><rect fill="#FEFECE" filter="url(#f1v75pso7m0ync)" height="33.1201" style="stroke: #A80036; stroke-width: 1.5;" width="56" x="190" y="304.4009"/><text fill="#000000" font-family="sans-serif" font-size="14" lengthAdjust="spacingAndGlyphs" textLength="42" x="197" y="327.4448">客户端</text><rect fill="#FEFECE" filter="url(#f1v75pso7m0ync)" height="33.1201" style="stroke: #A80036; stroke-width: 1.5;" width="56" x="260" y="3"/><text fill="#000000" font-family="sans-serif" font-size="14" lengthAdjust="spacingAndGlyphs" textLength="42" x="267" y="26.0439">服务器</text><rect fill="#FEFECE" filter="url(#f1v75pso7m0ync)" height="33.1201" style="stroke: #A80036; stroke-width: 1.5;" width="56" x="260" y="304.4009"/><text fill="#000000" font-family="sans-serif" font-size="14" lengthAdjust="spacingAndGlyphs" textLength="42" x="267" y="327.4448">服务器</text><path d="M8,56.1201 L8,83.1201 L211,83.1201 L211,66.1201 L201,56.1201 L8,56.1201 " fill="#00FFFF" filter="url(#f1v75pso7m0ync)" style="stroke: #A80036; stroke-width: 1.0;"/><path d="M201,56.1201 L201,66.1201 L211,66.1201 L201,56.1201 " fill="#00FFFF" style="stroke: #A80036; stroke-width: 1.0;"/><text fill="#000000" font-family="sans-serif" font-size="13" lengthAdjust="spacingAndGlyphs" textLength="182" x="14" y="76.0181">这是相对客户端模块左侧的注解</text><path d="M225,97.8745 L225,124.8745 L428,124.8745 L428,107.8745 L418,97.8745 L225,97.8745 " fill="#FBFB77" filter="url(#f1v75pso7m0ync)" style="stroke: #A80036; stroke-width: 1.0;"/><path d="M418,97.8745 L418,107.8745 L428,107.8745 L418,97.8745 " fill="#FBFB77" style="stroke: #A80036; stroke-width: 1.0;"/><text fill="#000000" font-family="sans-serif" font-size="13" lengthAdjust="spacingAndGlyphs" textLength="182" x="231" y="117.7725">这是相对客户端模块右侧的注解</text><path d="M116,139.6289 L116,166.6289 L319,166.6289 L319,149.6289 L309,139.6289 L116,139.6289 " fill="#FBFB77" filter="url(#f1v75pso7m0ync)" style="stroke: #A80036; stroke-width: 1.0;"/><path d="M309,139.6289 L309,149.6289 L319,149.6289 L309,139.6289 " fill="#FBFB77" style="stroke: #A80036; stroke-width: 1.0;"/><text fill="#000000" font-family="sans-serif" font-size="13" lengthAdjust="spacingAndGlyphs" textLength="182" x="122" y="159.5269">这是相对客户端模块中间的注解</text><path d="M162,181.3833 L162,226.3833 L343,226.3833 L343,191.3833 L333,181.3833 L162,181.3833 " fill="#FFAAAA" filter="url(#f1v75pso7m0ync)" style="stroke: #A80036; stroke-width: 1.0;"/><path d="M333,181.3833 L333,191.3833 L343,191.3833 L333,181.3833 " fill="#FFAAAA" style="stroke: #A80036; stroke-width: 1.0;"/><text fill="#000000" font-family="sans-serif" font-size="13" lengthAdjust="spacingAndGlyphs" textLength="52" x="168" y="201.2813">这是相对</text><text fill="#000000" font-family="sans-serif" font-size="13" lengthAdjust="spacingAndGlyphs" textLength="156" x="172" y="219.0356">服务器和客户端之间的注解</text><path d="M164,240.8921 L164,285.8921 L341,285.8921 L341,250.8921 L331,240.8921 L164,240.8921 " fill="#FBFB77" filter="url(#f1v75pso7m0ync)" style="stroke: #A80036; stroke-width: 1.0;"/><path d="M331,240.8921 L331,250.8921 L341,250.8921 L331,240.8921 " fill="#FBFB77" style="stroke: #A80036; stroke-width: 1.0;"/><text fill="#000000" font-family="sans-serif" font-size="13" lengthAdjust="spacingAndGlyphs" textLength="91" x="170" y="260.79">这是换行的注解</text><text fill="#000000" font-family="sans-serif" font-size="13" lengthAdjust="spacingAndGlyphs" textLength="156" x="170" y="278.5444">使用 note 和 end note 组合</text><!--
@startuml
participant 客户端
participant 服务器

note left of 客户端 #aqua
    这是相对客户端模块左侧的注解
end note

note right of 客户端: 这是相对客户端模块右侧的注解

note over 客户端: 这是相对客户端模块中间的注解

note over 客户端, 服务器 #FFAAAA: 这是相对\n 服务器和客户端之间的注解

note over 客户端, 服务器
    这是换行的注解
    使用 note 和 end note 组合
end note
@enduml

PlantUML version 1.2018.12(Sun Oct 21 18:15:15 CST 2018)
(GPL source distribution)
Java Runtime: Java(TM) SE Runtime Environment
JVM: Java HotSpot(TM) 64-Bit Server VM
Java Version: 1.8.0_144-b01
Operating System: Windows 7
OS Version: 6.1
Default Encoding: GBK
Language: zh
Country: CN
--></g></svg>