<?xml version="1.0" encoding="UTF-8" standalone="no"?><svg xmlns="http://www.w3.org/2000/svg" xmlns:xlink="http://www.w3.org/1999/xlink" contentScriptType="application/ecmascript" contentStyleType="text/css" height="266px" preserveAspectRatio="none" style="width:407px;height:266px;" version="1.1" viewBox="0 0 407 266" width="407px" zoomAndPan="magnify"><defs><filter height="300%" id="f3c3knuyifv0r" width="300%" x="-1" y="-1"><feGaussianBlur result="blurOut" stdDeviation="2.0"/><feColorMatrix in="blurOut" result="blurOut2" type="matrix" values="0 0 0 0 0 0 0 0 0 0 0 0 0 0 0 0 0 0 .4 0"/><feOffset dx="4.0" dy="4.0" in="blurOut2" result="blurOut3"/><feBlend in="SourceGraphic" in2="blurOut3" mode="normal"/></filter></defs><g><line style="stroke: #383838; stroke-width: 1.0;" x1="25" x2="25" y1="89.1201" y2="254.2349"/><line style="stroke: #383838; stroke-width: 1.0;" x1="127.5" x2="127.5" y1="89.1201" y2="254.2349"/><line style="stroke: #383838; stroke-width: 1.0;" x1="186.5" x2="186.5" y1="89.1201" y2="254.2349"/><line style="stroke: #383838; stroke-width: 1.0;" x1="251.5" x2="251.5" y1="89.1201" y2="254.2349"/><line style="stroke: #383838; stroke-width: 1.0;" x1="316.5" x2="316.5" y1="89.1201" y2="254.2349"/><line style="stroke: #383838; stroke-width: 1.0;" x1="375.5" x2="375.5" y1="89.1201" y2="254.2349"/><text fill="#000000" font-family="sans-serif" font-size="14" lengthAdjust="spacingAndGlyphs" textLength="28" x="8" y="86.0439">角色</text><ellipse cx="25" cy="13" fill="#F8F8F8" filter="url(#f3c3knuyifv0r)" rx="8" ry="8" style="stroke: #383838; stroke-width: 2.0;"/><path d="M25,21 L25,48 M12,29 L38,29 M25,48 L12,63 M25,48 L38,63 " fill="none" filter="url(#f3c3knuyifv0r)" style="stroke: #383838; stroke-width: 2.0;"/><text fill="#000000" font-family="sans-serif" font-size="14" lengthAdjust="spacingAndGlyphs" textLength="28" x="111" y="86.0439">分界</text><path d="M107.5,42 L107.5,66 M107.5,54 L124.5,54 " fill="none" filter="url(#f3c3knuyifv0r)" style="stroke: #383838; stroke-width: 2.0;"/><ellipse cx="136.5" cy="54" fill="#F8F8F8" filter="url(#f3c3knuyifv0r)" rx="12" ry="12" style="stroke: #383838; stroke-width: 2.0;"/><text fill="#000000" font-family="sans-serif" font-size="14" lengthAdjust="spacingAndGlyphs" textLength="42" x="162.5" y="86.0439">控制器</text><ellipse cx="186.5" cy="54" fill="#F8F8F8" filter="url(#f3c3knuyifv0r)" rx="12" ry="12" style="stroke: #383838; stroke-width: 2.0;"/><polygon fill="#383838" points="182.5,42,188.5,37,186.5,42,188.5,47,182.5,42" style="stroke: #383838; stroke-width: 1.0;"/><text fill="#000000" font-family="sans-serif" font-size="14" lengthAdjust="spacingAndGlyphs" textLength="56" x="220.5" y="86.0439">数据对象</text><ellipse cx="251.5" cy="54" fill="#F8F8F8" filter="url(#f3c3knuyifv0r)" rx="12" ry="12" style="stroke: #383838; stroke-width: 2.0;"/><line style="stroke: #383838; stroke-width: 2.0;" x1="239.5" x2="263.5" y1="68" y2="68"/><text fill="#000000" font-family="sans-serif" font-size="14" lengthAdjust="spacingAndGlyphs" textLength="42" x="292.5" y="86.0439">数据库</text><path d="M298.5,34 C298.5,24 316.5,24 316.5,24 C316.5,24 334.5,24 334.5,34 L334.5,60 C334.5,70 316.5,70 316.5,70 C316.5,70 298.5,70 298.5,60 L298.5,34 " fill="#F8F8F8" filter="url(#f3c3knuyifv0r)" style="stroke: #000000; stroke-width: 1.5;"/><path d="M298.5,34 C298.5,44 316.5,44 316.5,44 C316.5,44 334.5,44 334.5,34 " fill="none" style="stroke: #000000; stroke-width: 1.5;"/><rect fill="#F8F8F8" filter="url(#f3c3knuyifv0r)" height="33.1201" style="stroke: #383838; stroke-width: 1.5;" width="42" x="354.5" y="47"/><rect fill="#F8F8F8" filter="url(#f3c3knuyifv0r)" height="33.1201" style="stroke: #383838; stroke-width: 1.5;" width="42" x="350.5" y="51"/><text fill="#000000" font-family="sans-serif" font-size="14" lengthAdjust="spacingAndGlyphs" textLength="28" x="357.5" y="74.0439">集合</text><polygon fill="#383838" points="116,116.1431,126,120.1431,116,124.1431,120,120.1431" style="stroke: #383838; stroke-width: 1.0;"/><line style="stroke: #383838; stroke-width: 1.0;" x1="25" x2="122" y1="120.1431" y2="120.1431"/><text fill="#000000" font-family="sans-serif" font-size="11" font-weight="bold" lengthAdjust="spacingAndGlyphs" textLength="20" x="37" y="115.7261">[01]</text><text fill="#000000" font-family="sans-serif" font-size="11" lengthAdjust="spacingAndGlyphs" textLength="55" x="61" y="115.7261">发送到分界</text><polygon fill="#383838" points="174.5,145.166,184.5,149.166,174.5,153.166,178.5,149.166" style="stroke: #383838; stroke-width: 1.0;"/><line style="stroke: #383838; stroke-width: 1.0;" x1="25" x2="180.5" y1="149.166" y2="149.166"/><text fill="#000000" font-family="sans-serif" font-size="11" font-weight="bold" lengthAdjust="spacingAndGlyphs" textLength="20" x="60.75" y="144.749">[02]</text><text fill="#000000" font-family="sans-serif" font-size="11" lengthAdjust="spacingAndGlyphs" textLength="66" x="84.75" y="144.749">发送到控制器</text><polygon fill="#383838" points="239.5,174.189,249.5,178.189,239.5,182.189,243.5,178.189" style="stroke: #383838; stroke-width: 1.0;"/><line style="stroke: #383838; stroke-width: 1.0;" x1="25" x2="245.5" y1="178.189" y2="178.189"/><text fill="#000000" font-family="sans-serif" font-size="11" font-weight="bold" lengthAdjust="spacingAndGlyphs" textLength="20" x="87.75" y="173.772">[03]</text><text fill="#000000" font-family="sans-serif" font-size="11" lengthAdjust="spacingAndGlyphs" textLength="77" x="111.75" y="173.772">发送到数据对象</text><polygon fill="#383838" points="304.5,203.2119,314.5,207.2119,304.5,211.2119,308.5,207.2119" style="stroke: #383838; stroke-width: 1.0;"/><line style="stroke: #383838; stroke-width: 1.0;" x1="25" x2="310.5" y1="207.2119" y2="207.2119"/><text fill="#000000" font-family="sans-serif" font-size="11" font-weight="bold" lengthAdjust="spacingAndGlyphs" textLength="20" x="125.75" y="202.7949">[04]</text><text fill="#000000" font-family="sans-serif" font-size="11" lengthAdjust="spacingAndGlyphs" textLength="66" x="149.75" y="202.7949">发送到数据库</text><polygon fill="#383838" points="363.5,232.2349,373.5,236.2349,363.5,240.2349,367.5,236.2349" style="stroke: #383838; stroke-width: 1.0;"/><line style="stroke: #383838; stroke-width: 1.0;" x1="25" x2="369.5" y1="236.2349" y2="236.2349"/><text fill="#000000" font-family="sans-serif" font-size="11" font-weight="bold" lengthAdjust="spacingAndGlyphs" textLength="20" x="160.75" y="231.8179">[05]</text><text fill="#000000" font-family="sans-serif" font-size="11" lengthAdjust="spacingAndGlyphs" textLength="55" x="184.75" y="231.8179">发送到集合</text><!--
@startuml
hide footbox
skinparam sequenceMessageAlign center
skinparam sequenceArrowFontSize 11
skinparam noteFontSize 11
skinparam monochrome true
skinparam lifelinestrategy solid
autonumber "<b>[00]"

actor 角色
boundary 分界
control 控制器
entity 数据对象
database 数据库
collections 集合
角色 -> 分界 : 发送到分界
角色 -> 控制器 : 发送到控制器
角色 -> 数据对象 : 发送到数据对象
角色 -> 数据库 : 发送到数据库
角色 -> 集合 : 发送到集合
@enduml

PlantUML version 1.2019.06(Sat May 25 01:10:25 CST 2019)
(GPL source distribution)
Java Runtime: Java(TM) SE Runtime Environment
JVM: Java HotSpot(TM) 64-Bit Server VM
Java Version: 1.8.0_144-b01
Operating System: Windows 7
OS Version: 6.1
Default Encoding: GBK
Language: zh
Country: CN
--></g></svg>