<?xml version="1.0" encoding="UTF-8" standalone="no"?><svg xmlns="http://www.w3.org/2000/svg" xmlns:xlink="http://www.w3.org/1999/xlink" contentScriptType="application/ecmascript" contentStyleType="text/css" height="339px" preserveAspectRatio="none" style="width:393px;height:339px;" version="1.1" viewBox="0 0 393 339" width="393px" zoomAndPan="magnify"><defs><filter height="300%" id="f2hj8zacezmrr" width="300%" x="-1" y="-1"><feGaussianBlur result="blurOut" stdDeviation="2.0"/><feColorMatrix in="blurOut" result="blurOut2" type="matrix" values="0 0 0 0 0 0 0 0 0 0 0 0 0 0 0 0 0 0 .4 0"/><feOffset dx="4.0" dy="4.0" in="blurOut2" result="blurOut3"/><feBlend in="SourceGraphic" in2="blurOut3" mode="normal"/></filter></defs><g><line style="stroke: #A80036; stroke-width: 1.0; stroke-dasharray: 5.0,5.0;" x1="25" x2="25" y1="86.2969" y2="251.9609"/><line style="stroke: #A80036; stroke-width: 1.0; stroke-dasharray: 5.0,5.0;" x1="113.5" x2="113.5" y1="86.2969" y2="251.9609"/><line style="stroke: #A80036; stroke-width: 1.0; stroke-dasharray: 5.0,5.0;" x1="172.5" x2="172.5" y1="86.2969" y2="251.9609"/><line style="stroke: #A80036; stroke-width: 1.0; stroke-dasharray: 5.0,5.0;" x1="237.5" x2="237.5" y1="86.2969" y2="251.9609"/><line style="stroke: #A80036; stroke-width: 1.0; stroke-dasharray: 5.0,5.0;" x1="302.5" x2="302.5" y1="86.2969" y2="251.9609"/><line style="stroke: #A80036; stroke-width: 1.0; stroke-dasharray: 5.0,5.0;" x1="361.5" x2="361.5" y1="86.2969" y2="251.9609"/><text fill="#000000" font-family="sans-serif" font-size="14" lengthAdjust="spacingAndGlyphs" textLength="28" x="8" y="82.9951">角色</text><ellipse cx="25" cy="13" fill="#FEFECE" filter="url(#f2hj8zacezmrr)" rx="8" ry="8" style="stroke: #A80036; stroke-width: 2.0;"/><path d="M25,21 L25,48 M12,29 L38,29 M25,48 L12,63 M25,48 L38,63 " fill="none" filter="url(#f2hj8zacezmrr)" style="stroke: #A80036; stroke-width: 2.0;"/><text fill="#000000" font-family="sans-serif" font-size="14" lengthAdjust="spacingAndGlyphs" textLength="28" x="8" y="263.9561">角色</text><ellipse cx="25" cy="277.2578" fill="#FEFECE" filter="url(#f2hj8zacezmrr)" rx="8" ry="8" style="stroke: #A80036; stroke-width: 2.0;"/><path d="M25,285.2578 L25,312.2578 M12,293.2578 L38,293.2578 M25,312.2578 L12,327.2578 M25,312.2578 L38,327.2578 " fill="none" filter="url(#f2hj8zacezmrr)" style="stroke: #A80036; stroke-width: 2.0;"/><text fill="#000000" font-family="sans-serif" font-size="14" lengthAdjust="spacingAndGlyphs" textLength="28" x="97" y="82.9951">分界</text><path d="M93.5,42 L93.5,66 M93.5,54 L110.5,54 " fill="none" filter="url(#f2hj8zacezmrr)" style="stroke: #A80036; stroke-width: 2.0;"/><ellipse cx="122.5" cy="54" fill="#FEFECE" filter="url(#f2hj8zacezmrr)" rx="12" ry="12" style="stroke: #A80036; stroke-width: 2.0;"/><text fill="#000000" font-family="sans-serif" font-size="14" lengthAdjust="spacingAndGlyphs" textLength="28" x="97" y="263.9561">分界</text><path d="M93.5,271.2578 L93.5,295.2578 M93.5,283.2578 L110.5,283.2578 " fill="none" filter="url(#f2hj8zacezmrr)" style="stroke: #A80036; stroke-width: 2.0;"/><ellipse cx="122.5" cy="283.2578" fill="#FEFECE" filter="url(#f2hj8zacezmrr)" rx="12" ry="12" style="stroke: #A80036; stroke-width: 2.0;"/><text fill="#000000" font-family="sans-serif" font-size="14" lengthAdjust="spacingAndGlyphs" textLength="42" x="148.5" y="82.9951">控制器</text><ellipse cx="172.5" cy="54" fill="#FEFECE" filter="url(#f2hj8zacezmrr)" rx="12" ry="12" style="stroke: #A80036; stroke-width: 2.0;"/><polygon fill="#A80036" points="168.5,42,174.5,37,172.5,42,174.5,47,168.5,42" style="stroke: #A80036; stroke-width: 1.0;"/><text fill="#000000" font-family="sans-serif" font-size="14" lengthAdjust="spacingAndGlyphs" textLength="42" x="148.5" y="263.9561">控制器</text><ellipse cx="172.5" cy="283.2578" fill="#FEFECE" filter="url(#f2hj8zacezmrr)" rx="12" ry="12" style="stroke: #A80036; stroke-width: 2.0;"/><polygon fill="#A80036" points="168.5,271.2578,174.5,266.2578,172.5,271.2578,174.5,276.2578,168.5,271.2578" style="stroke: #A80036; stroke-width: 1.0;"/><text fill="#000000" font-family="sans-serif" font-size="14" lengthAdjust="spacingAndGlyphs" textLength="56" x="206.5" y="82.9951">数据对象</text><ellipse cx="237.5" cy="54" fill="#FEFECE" filter="url(#f2hj8zacezmrr)" rx="12" ry="12" style="stroke: #A80036; stroke-width: 2.0;"/><line style="stroke: #A80036; stroke-width: 2.0;" x1="225.5" x2="249.5" y1="68" y2="68"/><text fill="#000000" font-family="sans-serif" font-size="14" lengthAdjust="spacingAndGlyphs" textLength="56" x="206.5" y="263.9561">数据对象</text><ellipse cx="237.5" cy="283.2578" fill="#FEFECE" filter="url(#f2hj8zacezmrr)" rx="12" ry="12" style="stroke: #A80036; stroke-width: 2.0;"/><line style="stroke: #A80036; stroke-width: 2.0;" x1="225.5" x2="249.5" y1="297.2578" y2="297.2578"/><text fill="#000000" font-family="sans-serif" font-size="14" lengthAdjust="spacingAndGlyphs" textLength="42" x="278.5" y="82.9951">数据库</text><path d="M284.5,34 C284.5,24 302.5,24 302.5,24 C302.5,24 320.5,24 320.5,34 L320.5,60 C320.5,70 302.5,70 302.5,70 C302.5,70 284.5,70 284.5,60 L284.5,34 " fill="#FEFECE" filter="url(#f2hj8zacezmrr)" style="stroke: #000000; stroke-width: 1.5;"/><path d="M284.5,34 C284.5,44 302.5,44 302.5,44 C302.5,44 320.5,44 320.5,34 " fill="none" style="stroke: #000000; stroke-width: 1.5;"/><text fill="#000000" font-family="sans-serif" font-size="14" lengthAdjust="spacingAndGlyphs" textLength="42" x="278.5" y="263.9561">数据库</text><path d="M284.5,277.2578 C284.5,267.2578 302.5,267.2578 302.5,267.2578 C302.5,267.2578 320.5,267.2578 320.5,277.2578 L320.5,303.2578 C320.5,313.2578 302.5,313.2578 302.5,313.2578 C302.5,313.2578 284.5,313.2578 284.5,303.2578 L284.5,277.2578 " fill="#FEFECE" filter="url(#f2hj8zacezmrr)" style="stroke: #000000; stroke-width: 1.5;"/><path d="M284.5,277.2578 C284.5,287.2578 302.5,287.2578 302.5,287.2578 C302.5,287.2578 320.5,287.2578 320.5,277.2578 " fill="none" style="stroke: #000000; stroke-width: 1.5;"/><rect fill="#FEFECE" filter="url(#f2hj8zacezmrr)" height="30.2969" style="stroke: #A80036; stroke-width: 1.5;" width="42" x="340.5" y="47"/><rect fill="#FEFECE" filter="url(#f2hj8zacezmrr)" height="30.2969" style="stroke: #A80036; stroke-width: 1.5;" width="42" x="336.5" y="51"/><text fill="#000000" font-family="sans-serif" font-size="14" lengthAdjust="spacingAndGlyphs" textLength="28" x="343.5" y="70.9951">集合</text><rect fill="#FEFECE" filter="url(#f2hj8zacezmrr)" height="30.2969" style="stroke: #A80036; stroke-width: 1.5;" width="42" x="340.5" y="250.9609"/><rect fill="#FEFECE" filter="url(#f2hj8zacezmrr)" height="30.2969" style="stroke: #A80036; stroke-width: 1.5;" width="42" x="336.5" y="254.9609"/><text fill="#000000" font-family="sans-serif" font-size="14" lengthAdjust="spacingAndGlyphs" textLength="28" x="343.5" y="274.9561">集合</text><polygon fill="#A80036" points="102,113.4297,112,117.4297,102,121.4297,106,117.4297" style="stroke: #A80036; stroke-width: 1.0;"/><line style="stroke: #A80036; stroke-width: 1.0;" x1="25" x2="108" y1="117.4297" y2="117.4297"/><text fill="#000000" font-family="sans-serif" font-size="13" lengthAdjust="spacingAndGlyphs" textLength="65" x="32" y="112.3638">发送到分界</text><polygon fill="#A80036" points="160.5,142.5625,170.5,146.5625,160.5,150.5625,164.5,146.5625" style="stroke: #A80036; stroke-width: 1.0;"/><line style="stroke: #A80036; stroke-width: 1.0;" x1="25" x2="166.5" y1="146.5625" y2="146.5625"/><text fill="#000000" font-family="sans-serif" font-size="13" lengthAdjust="spacingAndGlyphs" textLength="78" x="32" y="141.4966">发送到控制器</text><polygon fill="#A80036" points="225.5,171.6953,235.5,175.6953,225.5,179.6953,229.5,175.6953" style="stroke: #A80036; stroke-width: 1.0;"/><line style="stroke: #A80036; stroke-width: 1.0;" x1="25" x2="231.5" y1="175.6953" y2="175.6953"/><text fill="#000000" font-family="sans-serif" font-size="13" lengthAdjust="spacingAndGlyphs" textLength="91" x="32" y="170.6294">发送到数据对象</text><polygon fill="#A80036" points="290.5,200.8281,300.5,204.8281,290.5,208.8281,294.5,204.8281" style="stroke: #A80036; stroke-width: 1.0;"/><line style="stroke: #A80036; stroke-width: 1.0;" x1="25" x2="296.5" y1="204.8281" y2="204.8281"/><text fill="#000000" font-family="sans-serif" font-size="13" lengthAdjust="spacingAndGlyphs" textLength="78" x="32" y="199.7622">发送到数据库</text><polygon fill="#A80036" points="349.5,229.9609,359.5,233.9609,349.5,237.9609,353.5,233.9609" style="stroke: #A80036; stroke-width: 1.0;"/><line style="stroke: #A80036; stroke-width: 1.0;" x1="25" x2="355.5" y1="233.9609" y2="233.9609"/><text fill="#000000" font-family="sans-serif" font-size="13" lengthAdjust="spacingAndGlyphs" textLength="65" x="32" y="228.895">发送到集合</text><!--
@startuml
actor 角色
boundary 分界
control 控制器
entity 数据对象
database 数据库
collections 集合
角色 -> 分界 : 发送到分界
角色 -> 控制器 : 发送到控制器
角色 -> 数据对象 : 发送到数据对象
角色 -> 数据库 : 发送到数据库
角色 -> 集合 : 发送到集合
@enduml

PlantUML version 1.2018.15beta2(Unknown compile time)
(GPL source distribution)
Java Runtime: Java(TM) SE Runtime Environment
JVM: Java HotSpot(TM) 64-Bit Server VM
Java Version: 1.7.0_25-b15
Operating System: Linux
Default Encoding: UTF-8
Language: en
Country: US
--></g></svg>