<?xml version="1.0" encoding="UTF-8" standalone="no"?><svg xmlns="http://www.w3.org/2000/svg" xmlns:xlink="http://www.w3.org/1999/xlink" contentScriptType="application/ecmascript" contentStyleType="text/css" height="310px" preserveAspectRatio="none" style="width:364px;height:310px;" version="1.1" viewBox="0 0 364 310" width="364px" zoomAndPan="magnify"><defs><filter height="300%" id="f1limkp4zmnjvr" width="300%" x="-1" y="-1"><feGaussianBlur result="blurOut" stdDeviation="2.0"/><feColorMatrix in="blurOut" result="blurOut2" type="matrix" values="0 0 0 0 0 0 0 0 0 0 0 0 0 0 0 0 0 0 .4 0"/><feOffset dx="4.0" dy="4.0" in="blurOut2" result="blurOut3"/><feBlend in="SourceGraphic" in2="blurOut3" mode="normal"/></filter></defs><g><line style="stroke: #A80036; stroke-width: 1.0; stroke-dasharray: 5.0,5.0;" x1="32" x2="32" y1="86.2969" y2="222.8281"/><line style="stroke: #A80036; stroke-width: 1.0; stroke-dasharray: 5.0,5.0;" x1="93" x2="93" y1="86.2969" y2="222.8281"/><line style="stroke: #A80036; stroke-width: 1.0; stroke-dasharray: 5.0,5.0;" x1="169.5" x2="169.5" y1="86.2969" y2="222.8281"/><line style="stroke: #A80036; stroke-width: 1.0; stroke-dasharray: 5.0,5.0;" x1="253.5" x2="253.5" y1="86.2969" y2="222.8281"/><line style="stroke: #A80036; stroke-width: 1.0; stroke-dasharray: 5.0,5.0;" x1="329" x2="329" y1="86.2969" y2="222.8281"/><text fill="#000000" font-family="sans-serif" font-size="14" lengthAdjust="spacingAndGlyphs" textLength="42" x="8" y="82.9951">管理员</text><ellipse cx="32" cy="13" fill="#FF0000" filter="url(#f1limkp4zmnjvr)" rx="8" ry="8" style="stroke: #A80036; stroke-width: 2.0;"/><path d="M32,21 L32,48 M19,29 L45,29 M32,48 L19,63 M32,48 L45,63 " fill="none" filter="url(#f1limkp4zmnjvr)" style="stroke: #A80036; stroke-width: 2.0;"/><text fill="#000000" font-family="sans-serif" font-size="14" lengthAdjust="spacingAndGlyphs" textLength="42" x="8" y="234.8232">管理员</text><ellipse cx="32" cy="248.125" fill="#FF0000" filter="url(#f1limkp4zmnjvr)" rx="8" ry="8" style="stroke: #A80036; stroke-width: 2.0;"/><path d="M32,256.125 L32,283.125 M19,264.125 L45,264.125 M32,283.125 L19,298.125 M32,283.125 L45,298.125 " fill="none" filter="url(#f1limkp4zmnjvr)" style="stroke: #A80036; stroke-width: 2.0;"/><rect fill="#FEFECE" filter="url(#f1limkp4zmnjvr)" height="30.2969" style="stroke: #A80036; stroke-width: 1.5;" width="51" x="66" y="51"/><text fill="#000000" font-family="sans-serif" font-size="14" lengthAdjust="spacingAndGlyphs" textLength="37" x="73" y="70.9951">服务1</text><rect fill="#FEFECE" filter="url(#f1limkp4zmnjvr)" height="30.2969" style="stroke: #A80036; stroke-width: 1.5;" width="51" x="66" y="221.8281"/><text fill="#000000" font-family="sans-serif" font-size="14" lengthAdjust="spacingAndGlyphs" textLength="37" x="73" y="241.8232">服务1</text><rect fill="#99FF99" filter="url(#f1limkp4zmnjvr)" height="30.2969" style="stroke: #A80036; stroke-width: 1.5;" width="70" x="132.5" y="51"/><text fill="#000000" font-family="sans-serif" font-size="14" lengthAdjust="spacingAndGlyphs" textLength="56" x="139.5" y="70.9951">请求日志</text><rect fill="#99FF99" filter="url(#f1limkp4zmnjvr)" height="30.2969" style="stroke: #A80036; stroke-width: 1.5;" width="70" x="132.5" y="221.8281"/><text fill="#000000" font-family="sans-serif" font-size="14" lengthAdjust="spacingAndGlyphs" textLength="56" x="139.5" y="241.8232">请求日志</text><rect fill="#99FF00" filter="url(#f1limkp4zmnjvr)" height="30.2969" style="stroke: #A80036; stroke-width: 1.5;" width="70" x="216.5" y="51"/><text fill="#000000" font-family="sans-serif" font-size="14" lengthAdjust="spacingAndGlyphs" textLength="56" x="223.5" y="70.9951">响应日志</text><rect fill="#99FF00" filter="url(#f1limkp4zmnjvr)" height="30.2969" style="stroke: #A80036; stroke-width: 1.5;" width="70" x="216.5" y="221.8281"/><text fill="#000000" font-family="sans-serif" font-size="14" lengthAdjust="spacingAndGlyphs" textLength="56" x="223.5" y="241.8232">响应日志</text><rect fill="#FEFECE" filter="url(#f1limkp4zmnjvr)" height="30.2969" style="stroke: #A80036; stroke-width: 1.5;" width="51" x="302" y="51"/><text fill="#000000" font-family="sans-serif" font-size="14" lengthAdjust="spacingAndGlyphs" textLength="37" x="309" y="70.9951">服务2</text><rect fill="#FEFECE" filter="url(#f1limkp4zmnjvr)" height="30.2969" style="stroke: #A80036; stroke-width: 1.5;" width="51" x="302" y="221.8281"/><text fill="#000000" font-family="sans-serif" font-size="14" lengthAdjust="spacingAndGlyphs" textLength="37" x="309" y="241.8232">服务2</text><polygon fill="#A80036" points="317.5,113.4297,327.5,117.4297,317.5,121.4297,321.5,117.4297" style="stroke: #A80036; stroke-width: 1.0;"/><line style="stroke: #A80036; stroke-width: 1.0;" x1="93.5" x2="323.5" y1="117.4297" y2="117.4297"/><text fill="#000000" font-family="sans-serif" font-size="13" lengthAdjust="spacingAndGlyphs" textLength="52" x="100.5" y="112.3638">验证请求</text><polygon fill="#A80036" points="157.5,142.5625,167.5,146.5625,157.5,150.5625,161.5,146.5625" style="stroke: #A80036; stroke-width: 1.0;"/><line style="stroke: #A80036; stroke-width: 1.0;" x1="93.5" x2="163.5" y1="146.5625" y2="146.5625"/><text fill="#000000" font-family="sans-serif" font-size="13" lengthAdjust="spacingAndGlyphs" textLength="52" x="100.5" y="141.4966">日志记录</text><polygon fill="#A80036" points="104.5,171.6953,94.5,175.6953,104.5,179.6953,100.5,175.6953" style="stroke: #A80036; stroke-width: 1.0;"/><line style="stroke: #A80036; stroke-width: 1.0;" x1="98.5" x2="328.5" y1="175.6953" y2="175.6953"/><text fill="#000000" font-family="sans-serif" font-size="13" lengthAdjust="spacingAndGlyphs" textLength="52" x="110.5" y="170.6294">验证响应</text><polygon fill="#A80036" points="264.5,200.8281,254.5,204.8281,264.5,208.8281,260.5,204.8281" style="stroke: #A80036; stroke-width: 1.0;"/><line style="stroke: #A80036; stroke-width: 1.0;" x1="258.5" x2="328.5" y1="204.8281" y2="204.8281"/><text fill="#000000" font-family="sans-serif" font-size="13" lengthAdjust="spacingAndGlyphs" textLength="52" x="270.5" y="199.7622">日志记录</text><!--
@startuml
actor 管理员 #red
participant 服务1
participant "请求日志" as R #99FF99
participant S as "响应日志" #99FF00
participant 服务2

服务1->服务2: 验证请求
服务1->R: 日志记录

服务2->服务1: 验证响应
服务2->S: 日志记录
@enduml

PlantUML version 1.2018.15beta2(Unknown compile time)
(GPL source distribution)
Java Runtime: Java(TM) SE Runtime Environment
JVM: Java HotSpot(TM) 64-Bit Server VM
Java Version: 1.7.0_25-b15
Operating System: Linux
Default Encoding: UTF-8
Language: en
Country: US
--></g></svg>