<?xml version="1.0" encoding="UTF-8" standalone="no"?><svg xmlns="http://www.w3.org/2000/svg" xmlns:xlink="http://www.w3.org/1999/xlink" contentScriptType="application/ecmascript" contentStyleType="text/css" height="238px" preserveAspectRatio="none" style="width:145px;height:238px;" version="1.1" viewBox="0 0 145 238" width="145px" zoomAndPan="magnify"><defs><filter height="300%" id="f1w302ngw8rjqh" width="300%" x="-1" y="-1"><feGaussianBlur result="blurOut" stdDeviation="2.0"/><feColorMatrix in="blurOut" result="blurOut2" type="matrix" values="0 0 0 0 0 0 0 0 0 0 0 0 0 0 0 0 0 0 .4 0"/><feOffset dx="4.0" dy="4.0" in="blurOut2" result="blurOut3"/><feBlend in="SourceGraphic" in2="blurOut3" mode="normal"/></filter></defs><g><line style="stroke: #A80036; stroke-width: 1.0; stroke-dasharray: 5.0,5.0;" x1="38" x2="38" y1="38.2969" y2="198.2969"/><line style="stroke: #A80036; stroke-width: 1.0; stroke-dasharray: 5.0,5.0;" x1="108" x2="108" y1="38.2969" y2="198.2969"/><rect fill="#FEFECE" filter="url(#f1w302ngw8rjqh)" height="30.2969" style="stroke: #A80036; stroke-width: 1.5;" width="56" x="8" y="3"/><text fill="#000000" font-family="sans-serif" font-size="14" lengthAdjust="spacingAndGlyphs" textLength="42" x="15" y="22.9951">服务器</text><rect fill="#FEFECE" filter="url(#f1w302ngw8rjqh)" height="30.2969" style="stroke: #A80036; stroke-width: 1.5;" width="56" x="8" y="197.2969"/><text fill="#000000" font-family="sans-serif" font-size="14" lengthAdjust="spacingAndGlyphs" textLength="42" x="15" y="217.292">服务器</text><rect fill="#FEFECE" filter="url(#f1w302ngw8rjqh)" height="30.2969" style="stroke: #A80036; stroke-width: 1.5;" width="56" x="78" y="3"/><text fill="#000000" font-family="sans-serif" font-size="14" lengthAdjust="spacingAndGlyphs" textLength="42" x="85" y="22.9951">客户端</text><rect fill="#FEFECE" filter="url(#f1w302ngw8rjqh)" height="30.2969" style="stroke: #A80036; stroke-width: 1.5;" width="56" x="78" y="197.2969"/><text fill="#000000" font-family="sans-serif" font-size="14" lengthAdjust="spacingAndGlyphs" textLength="42" x="85" y="217.292">客户端</text><line style="stroke: #A80036; stroke-width: 2.0;" x1="90" x2="100" y1="49.2969" y2="59.2969"/><line style="stroke: #A80036; stroke-width: 2.0;" x1="90" x2="100" y1="59.2969" y2="49.2969"/><line style="stroke: #A80036; stroke-width: 1.0;" x1="38" x2="95" y1="54.2969" y2="54.2969"/><polygon fill="#A80036" points="96,64.2969,106,68.2969,96,72.2969,100,68.2969" style="stroke: #A80036; stroke-width: 1.0;"/><line style="stroke: #A80036; stroke-width: 1.0;" x1="38" x2="102" y1="68.2969" y2="68.2969"/><line style="stroke: #A80036; stroke-width: 1.0;" x1="106" x2="96" y1="82.2969" y2="78.2969"/><line style="stroke: #A80036; stroke-width: 1.0;" x1="106" x2="96" y1="82.2969" y2="86.2969"/><line style="stroke: #A80036; stroke-width: 1.0;" x1="38" x2="107" y1="82.2969" y2="82.2969"/><polygon fill="#A80036" points="96,92.2969,106,96.2969,96,96.2969" style="stroke: #A80036; stroke-width: 1.0;"/><line style="stroke: #A80036; stroke-width: 1.0;" x1="38" x2="107" y1="96.2969" y2="96.2969"/><line style="stroke: #A80036; stroke-width: 1.0;" x1="38" x2="48" y1="110.2969" y2="114.2969"/><line style="stroke: #A80036; stroke-width: 1.0;" x1="38" x2="107" y1="110.2969" y2="110.2969"/><line style="stroke: #A80036; stroke-width: 1.0;" x1="38" x2="48" y1="124.2969" y2="120.2969"/><line style="stroke: #A80036; stroke-width: 1.0; stroke-dasharray: 2.0,2.0;" x1="38" x2="107" y1="124.2969" y2="124.2969"/><ellipse cx="107.5" cy="137.5469" fill="none" rx="4" ry="4" style="stroke: #A80036; stroke-width: 1.5;"/><polygon fill="#A80036" points="90.5,134.2969,100.5,138.2969,90.5,142.2969,94.5,138.2969" style="stroke: #A80036; stroke-width: 1.0;"/><line style="stroke: #A80036; stroke-width: 1.0;" x1="38" x2="96.5" y1="138.2969" y2="138.2969"/><ellipse cx="37.5" cy="151.5469" fill="none" rx="4" ry="4" style="stroke: #A80036; stroke-width: 1.5;"/><line style="stroke: #A80036; stroke-width: 1.0;" x1="43.5" x2="53.5" y1="152.2969" y2="156.2969"/><line style="stroke: #A80036; stroke-width: 1.0; stroke-dasharray: 2.0,2.0;" x1="38" x2="107" y1="152.2969" y2="152.2969"/><polygon fill="#A80036" points="49,162.2969,39,166.2969,49,170.2969,45,166.2969" style="stroke: #A80036; stroke-width: 1.0;"/><polygon fill="#A80036" points="96,162.2969,106,166.2969,96,170.2969,100,166.2969" style="stroke: #A80036; stroke-width: 1.0;"/><line style="stroke: #A80036; stroke-width: 1.0;" x1="43" x2="102" y1="166.2969" y2="166.2969"/><polygon fill="#A80036" points="49,176.2969,39,180.2969,49,184.2969,45,180.2969" style="stroke: #A80036; stroke-width: 1.0;"/><ellipse cx="107.5" cy="179.5469" fill="none" rx="4" ry="4" style="stroke: #A80036; stroke-width: 1.5;"/><polygon fill="#A80036" points="90.5,176.2969,100.5,180.2969,90.5,184.2969,94.5,180.2969" style="stroke: #A80036; stroke-width: 1.0;"/><line style="stroke: #A80036; stroke-width: 1.0;" x1="43" x2="96.5" y1="180.2969" y2="180.2969"/><!--
@startuml
服务器 ->x 客户端
服务器 -> 客户端
服务器 ->> 客户端
服务器 -\ 客户端
服务器 \\- 客户端
服务器 //- - 客户端
服务器 ->o 客户端
服务器 o\\- - 客户端
服务器 <-> 客户端
服务器 <->o 客户端
@enduml

PlantUML version 1.2018.15beta2(Unknown compile time)
(GPL source distribution)
Java Runtime: Java(TM) SE Runtime Environment
JVM: Java HotSpot(TM) 64-Bit Server VM
Java Version: 1.7.0_25-b15
Operating System: Linux
Default Encoding: UTF-8
Language: en
Country: US
--></g></svg>